<svg width="1200" height="760" viewBox="0 0 1200 760" fill="none" xmlns="http://www.w3.org/2000/svg">
  <rect width="1200" height="760" fill="#eef3f9"/>
  <rect width="208" height="760" fill="#0b1224"/>
  <rect x="208" width="992" height="70" fill="#ffffff"/>
  <text x="250" y="23" fill="#7058ff" font-family="Inter, Arial, sans-serif" font-size="13" font-weight="800" letter-spacing="1.4">SHEI-IT FINANCE</text>
  <text x="250" y="51" fill="#111827" font-family="Inter, Arial, sans-serif" font-size="22" font-weight="800">Dashboard</text>
  <rect x="950" y="14" width="190" height="38" rx="19" fill="#f1f5fb" stroke="#d8e1ed"/>
  <circle cx="1176" cy="33" r="18" fill="#7556f2"/>
  <path d="M34 42c0-12 10-22 22-22 8 0 15 4 19 11l-12 7a8 8 0 0 0-7-5c-5 0-9 4-9 9 0 3 1 5 3 7l18 16c4 4 7 10 7 16 0 12-10 22-22 22-8 0-15-4-19-11l12-7a8 8 0 0 0 7 5c5 0 9-4 9-9 0-3-1-5-3-7L41 58c-4-4-7-10-7-16Z" fill="#1986d7"/>
  <text x="76" y="42" fill="#ffffff" font-family="Inter, Arial, sans-serif" font-size="17" font-weight="800">Shei-IT</text>
  <text x="76" y="59" fill="#94a3b8" font-family="Inter, Arial, sans-serif" font-size="13" font-weight="700">Finance</text>
  <line x1="20" y1="90" x2="188" y2="90" stroke="#1f2937"/>
  <rect x="12" y="132" width="184" height="42" rx="10" fill="#7655f4"/>
  <text x="46" y="158" fill="#ffffff" font-family="Inter, Arial, sans-serif" font-size="15" font-weight="800">Dashboard</text>
  <g fill="#94a3b8" font-family="Inter, Arial, sans-serif" font-size="13" font-weight="700">
    <text x="46" y="245">Clients</text>
    <text x="46" y="290">Projects</text>
    <text x="46" y="335">Revenue</text>
    <text x="46" y="410">Funds</text>
    <text x="46" y="455">Investments</text>
    <text x="46" y="500">Expenses</text>
    <text x="46" y="575">Employees</text>
    <text x="46" y="620">Salaries</text>
  </g>
  <g transform="translate(250 105)">
    <g>
      <rect width="305" height="145" rx="12" fill="#ffffff" stroke="#d8e1ed"/>
      <rect width="305" height="3" rx="1.5" fill="#00c49a"/>
      <rect x="20" y="28" width="40" height="40" rx="9" fill="#e9fff5"/>
      <text x="20" y="84" fill="#526985" font-family="Inter, Arial, sans-serif" font-size="13" font-weight="800" letter-spacing="1">TOTAL REVENUE</text>
      <text x="20" y="119" fill="#06122b" font-family="Inter, Arial, sans-serif" font-size="30" font-weight="900">0.00 Tk</text>
    </g>
    <g transform="translate(325 0)">
      <rect width="305" height="145" rx="12" fill="#ffffff" stroke="#d8e1ed"/>
      <rect width="305" height="3" rx="1.5" fill="#7058ff"/>
      <rect x="20" y="28" width="40" height="40" rx="9" fill="#edf1ff"/>
      <text x="20" y="84" fill="#526985" font-family="Inter, Arial, sans-serif" font-size="13" font-weight="800" letter-spacing="1">TOTAL INVESTMENT</text>
      <text x="20" y="119" fill="#06122b" font-family="Inter, Arial, sans-serif" font-size="30" font-weight="900">0.00 Tk</text>
    </g>
    <g transform="translate(650 0)">
      <rect width="305" height="145" rx="12" fill="#ffffff" stroke="#d8e1ed"/>
      <rect width="305" height="3" rx="1.5" fill="#ff4b4b"/>
      <rect x="20" y="28" width="40" height="40" rx="9" fill="#fff0f1"/>
      <text x="20" y="84" fill="#526985" font-family="Inter, Arial, sans-serif" font-size="13" font-weight="800" letter-spacing="1">TOTAL EXPENSE</text>
      <text x="20" y="119" fill="#06122b" font-family="Inter, Arial, sans-serif" font-size="30" font-weight="900">4,050.00 Tk</text>
    </g>
    <g transform="translate(0 165)">
      <rect width="305" height="145" rx="12" fill="#ffffff" stroke="#d8e1ed"/>
      <rect width="305" height="3" rx="1.5" fill="#ff4b4b"/>
      <text x="20" y="84" fill="#526985" font-family="Inter, Arial, sans-serif" font-size="13" font-weight="800" letter-spacing="1">TOTAL SALARY COST</text>
      <text x="20" y="119" fill="#06122b" font-family="Inter, Arial, sans-serif" font-size="30" font-weight="900">0.00 Tk</text>
    </g>
    <g transform="translate(325 165)">
      <rect width="305" height="145" rx="12" fill="#ffffff" stroke="#d8e1ed"/>
      <rect width="305" height="3" rx="1.5" fill="#ffa000"/>
      <text x="20" y="84" fill="#526985" font-family="Inter, Arial, sans-serif" font-size="13" font-weight="800" letter-spacing="1">TOTAL WITHDRAW</text>
      <text x="20" y="119" fill="#06122b" font-family="Inter, Arial, sans-serif" font-size="30" font-weight="900">0.00 Tk</text>
    </g>
    <g transform="translate(650 165)">
      <rect width="305" height="145" rx="12" fill="#ffffff" stroke="#d8e1ed"/>
      <rect width="305" height="3" rx="1.5" fill="#ff4b4b"/>
      <text x="20" y="84" fill="#526985" font-family="Inter, Arial, sans-serif" font-size="13" font-weight="800" letter-spacing="1">OPERATIONAL COST</text>
      <text x="20" y="119" fill="#06122b" font-family="Inter, Arial, sans-serif" font-size="30" font-weight="900">4,050.00 Tk</text>
    </g>
    <g transform="translate(0 330)">
      <rect width="305" height="145" rx="12" fill="#ffffff" stroke="#d8e1ed"/>
      <rect width="305" height="3" rx="1.5" fill="#ff4b4b"/>
      <text x="20" y="84" fill="#526985" font-family="Inter, Arial, sans-serif" font-size="13" font-weight="800" letter-spacing="1">NET PROFIT</text>
      <text x="20" y="119" fill="#06122b" font-family="Inter, Arial, sans-serif" font-size="30" font-weight="900">-4,050.00 Tk</text>
    </g>
    <g transform="translate(325 330)">
      <rect width="305" height="145" rx="12" fill="#fff8f8" stroke="#ffb4b4"/>
      <rect width="305" height="3" rx="1.5" fill="#ff4b4b"/>
      <text x="20" y="84" fill="#526985" font-family="Inter, Arial, sans-serif" font-size="13" font-weight="800" letter-spacing="1">CURRENT BALANCE</text>
      <text x="20" y="119" fill="#06122b" font-family="Inter, Arial, sans-serif" font-size="30" font-weight="900">-4,050.00 Tk</text>
      <text x="20" y="138" fill="#ff3030" font-family="Inter, Arial, sans-serif" font-size="12" font-weight="800">Negative Balance</text>
    </g>
    <g transform="translate(650 330)">
      <rect width="305" height="145" rx="12" fill="#ffffff" stroke="#d8e1ed"/>
      <rect width="305" height="3" rx="1.5" fill="#ff4b4b"/>
      <text x="20" y="84" fill="#526985" font-family="Inter, Arial, sans-serif" font-size="13" font-weight="800" letter-spacing="1">PROFIT STATUS</text>
      <text x="20" y="119" fill="#06122b" font-family="Inter, Arial, sans-serif" font-size="30" font-weight="900">Loss</text>
    </g>
    <rect y="505" width="955" height="72" rx="12" fill="#fff8f8" stroke="#ffb4b4"/>
    <text x="20" y="538" fill="#526985" font-family="Inter, Arial, sans-serif" font-size="13" font-weight="800" letter-spacing="1">CURRENT BALANCE LOGIC</text>
    <text x="20" y="568" fill="#06122b" font-family="Inter, Arial, sans-serif" font-size="28" font-weight="900">-4,050.00 Tk</text>
    <text x="735" y="552" fill="#526985" font-family="Inter, Arial, sans-serif" font-size="14" font-weight="800">Formula: Revenue + Investment - Expense - Paid Salary - Withdraw</text>
  </g>
</svg>
