<svg xmlns="http://www.w3.org/2000/svg" viewBox="0 0 1600 1300" role="img" aria-labelledby="title desc">
  <title id="title">StudentPulse AI project preview</title>
  <desc id="desc">Dark digital health project artwork with StudentPulse AI title and pulse line.</desc>
  <defs>
    <radialGradient id="bgGlow" cx="48%" cy="35%" r="78%">
      <stop offset="0%" stop-color="#124f58"/>
      <stop offset="48%" stop-color="#0d3445"/>
      <stop offset="100%" stop-color="#0b2338"/>
    </radialGradient>
    <linearGradient id="brand" x1="0%" y1="0%" x2="100%" y2="0%">
      <stop offset="0%" stop-color="#22d06d"/>
      <stop offset="48%" stop-color="#2dd8c7"/>
      <stop offset="100%" stop-color="#3178ff"/>
    </linearGradient>
    <linearGradient id="mark" x1="18%" y1="78%" x2="88%" y2="8%">
      <stop offset="0%" stop-color="#ff237f"/>
      <stop offset="55%" stop-color="#2fd6f7"/>
      <stop offset="100%" stop-color="#1e72ff"/>
    </linearGradient>
    <filter id="softGlow" x="-40%" y="-40%" width="180%" height="180%">
      <feGaussianBlur stdDeviation="8" result="blur"/>
      <feColorMatrix in="blur" type="matrix" values="0 0 0 0 0.16 0 0 0 0 0.86 0 0 0 0 0.95 0 0 0 0.75 0"/>
      <feMerge>
        <feMergeNode/>
        <feMergeNode in="SourceGraphic"/>
      </feMerge>
    </filter>
    <filter id="textGlow" x="-20%" y="-20%" width="140%" height="140%">
      <feGaussianBlur stdDeviation="3" result="blur"/>
      <feMerge>
        <feMergeNode in="blur"/>
        <feMergeNode in="SourceGraphic"/>
      </feMerge>
    </filter>
  </defs>
  <rect width="1600" height="1300" fill="url(#bgGlow)"/>
  <g opacity=".25" fill="none" stroke="#2fd6f7" stroke-width="2">
    <path d="M208 1170C334 930 452 836 648 812c278-34 416-244 551-512"/>
    <path d="M520 1130c186-214 335-285 530-306 155-17 261-82 373-226"/>
    <path d="M634 158c122 105 234 183 365 197 156 17 240 86 306 206"/>
  </g>
  <g opacity=".55">
    <circle cx="116" cy="282" r="12" fill="#2d9cff"/>
    <circle cx="276" cy="342" r="9" fill="#22d06d"/>
    <circle cx="318" cy="1168" r="14" fill="#1fd06f"/>
    <circle cx="1314" cy="926" r="11" fill="#2d9cff"/>
    <rect x="462" y="1216" width="30" height="22" rx="11" fill="#22d06d"/>
  </g>
  <g transform="translate(595 70)" filter="url(#softGlow)">
    <circle cx="210" cy="160" r="132" fill="none" stroke="url(#mark)" stroke-width="12" stroke-linecap="round" stroke-dasharray="690 110"/>
    <circle cx="80" cy="160" r="14" fill="#ff237f"/>
    <circle cx="340" cy="160" r="14" fill="#2fd6f7"/>
    <path d="M176 42l62 28v42l-62 28-62-28V70z" fill="#102643" opacity=".9"/>
    <path d="M114 70l62 27 62-27" fill="none" stroke="#204d78" stroke-width="6"/>
    <path d="M88 178c27-55 66-77 116-73 72 6 111 58 125 121-53-26-99-28-137-8-32 17-66 16-104-40z" fill="#78e4d3" opacity=".72"/>
    <path d="M197 228c35-60 125-55 145 14 14 47-31 95-96 142-66-47-111-95-97-142 7-25 25-40 48-42z" fill="#ff237f" opacity=".82"/>
    <path d="M92 92c-53 42-65 134-16 188 25 27 55 38 89 42-34-32-50-74-47-126 2-45 17-81 46-108-28-8-51-6-72 4z" fill="#bd57ff" opacity=".58"/>
    <path d="M266 106c50 21 77 63 80 126" fill="none" stroke="#79e7ff" stroke-width="8" stroke-linecap="round"/>
    <path d="M262 144h43l20 18h31" fill="none" stroke="#79e7ff" stroke-width="7" stroke-linecap="round" stroke-linejoin="round"/>
    <path d="M256 180h44l16 21h35" fill="none" stroke="#79e7ff" stroke-width="7" stroke-linecap="round" stroke-linejoin="round"/>
    <path d="M244 226h39l20 20h34" fill="none" stroke="#79e7ff" stroke-width="7" stroke-linecap="round" stroke-linejoin="round"/>
    <circle cx="364" cy="162" r="8" fill="#79e7ff"/>
    <circle cx="348" cy="204" r="8" fill="#79e7ff"/>
    <circle cx="338" cy="248" r="8" fill="#79e7ff"/>
    <path d="M206 301h25l17 35 18-70 32 75 19-40h31" fill="none" stroke="#0c2538" stroke-width="8" stroke-linecap="round" stroke-linejoin="round"/>
  </g>
  <g text-anchor="middle" filter="url(#textGlow)">
    <text x="800" y="680" fill="#f7fbff" font-family="Inter, Arial, sans-serif" font-size="92" font-weight="800">StudentPulse <tspan fill="url(#brand)">AI</tspan></text>
    <text x="800" y="778" fill="#d6e5ef" opacity=".76" font-family="Inter, Arial, sans-serif" font-size="52" font-weight="700" letter-spacing="4">Predicting Stress. Protecting Lives.</text>
  </g>
  <path d="M440 1072h118l38-75 66 176 47-240 70 226 56-89h110l40-70 65 117 42-45h142" fill="none" stroke="url(#brand)" stroke-width="13" stroke-linecap="square" stroke-linejoin="round" filter="url(#softGlow)"/>
</svg>
