<svg xmlns="http://www.w3.org/2000/svg" width="64" height="64" viewBox="0 0 24 24" fill="none">
  <path
    d="M12 2a10 10 0 0 0-3.16 19.49c.5.09.68-.22.68-.48v-1.7c-2.77.6-3.35-1.17-3.35-1.17-.45-1.15-1.1-1.46-1.1-1.46-.9-.62.07-.61.07-.61 1 .07 1.53 1.03 1.53 1.03.9 1.54 2.36 1.1 2.94.84.09-.65.35-1.1.64-1.35-2.21-.25-4.54-1.1-4.54-4.9 0-1.08.39-1.97 1.03-2.66-.1-.25-.45-1.27.1-2.65 0 0 .84-.27 2.75 1.02A9.5 9.5 0 0 1 12 6.8c.85 0 1.7.11 2.5.33 1.91-1.29 2.75-1.02 2.75-1.02.55 1.38.2 2.4.1 2.65.64.69 1.03 1.58 1.03 2.66 0 3.81-2.33 4.65-4.55 4.9.36.31.68.92.68 1.86v2.76c0 .26.18.58.69.48A10 10 0 0 0 12 2z"
    fill="currentColor"
  />
</svg>
